<?xml version="1.0" encoding="UTF-8" standalone="no" ?><!DOCTYPE svg PUBLIC "-//W3C//DTD SVG 1.1//EN" "http://www.w3.org/Graphics/SVG/1.1/DTD/svg11.dtd"><svg xmlns="http://www.w3.org/2000/svg" xmlns:xlink="http://www.w3.org/1999/xlink" version="1.1" width="1333" height="500" style="background-color: #FFFFFF" viewBox="0 0 1333 500" xml:space="preserve"><desc>Created with Fabric.js 1.6.2</desc><defs></defs><g style="stroke: none; stroke-width: 1; stroke-dasharray: none; stroke-linecap: butt; stroke-linejoin: miter; stroke-miterlimit: 10; fill: none; fill-rule: nonzero; opacity: 1" transform="translate(0.5 0.5)" ><path d="M 0.5 0.5 L 1332.5 0.5 L 1332.5 499.5 L 0.5 499.5 Z" style="stroke:#000000;stroke-opacity:1; stroke-opacity: 0; stroke-width: 1; stroke-dasharray: none; stroke-linecap: butt; stroke-linejoin: miter; stroke-miterlimit: 10;fill:#282828;fill-opacity:1; fill-opacity: 0; fill-rule: nonzero; opacity: 1" transform="" stroke-linecap="round" /><path d="M 0.5 0.5 L 1264.5 0.5 L 1264.5 449.5 L 0.5 449.5 L 0.5 0.5 Z" style="stroke:#000000;stroke-opacity:1; stroke-opacity: 0; stroke-width: 1; stroke-dasharray: none; stroke-linecap: butt; stroke-linejoin: miter; stroke-miterlimit: 10;fill:#FFFFFF;fill-opacity:1; fill-opacity: 0; fill-rule: nonzero; opacity: 1" transform=" matrix(1 0 0 1 48 20) " stroke-linecap="round" /><path d="M 0.5 0.5 L 0.5 -403.5 L 92.5 -403.5 L 92.5 0.5 L 0.5 0.5 Z" style="stroke:#AE85C9;stroke-opacity:1; stroke-opacity: 0.2; stroke-width: 1; stroke-dasharray: none; stroke-linecap: butt; stroke-linejoin: miter; stroke-miterlimit: 10;fill:#AE85C9;fill-opacity:1; fill-opacity: 0.8; fill-rule: nonzero; opacity: 1" transform=" matrix(1 0 0 1 59 469) " stroke-linecap="round" /><path d="M 0.5 0.5 L 0.5 -291.5 L 92.5 -291.5 L 92.5 0.5 L 0.5 0.5 Z" style="stroke:#AE85C9;stroke-opacity:1; stroke-opacity: 0.2; stroke-width: 1; stroke-dasharray: none; stroke-linecap: butt; stroke-linejoin: miter; stroke-miterlimit: 10;fill:#AE85C9;fill-opacity:1; fill-opacity: 0.8; fill-rule: nonzero; opacity: 1" transform=" matrix(1 0 0 1 174 469) " stroke-linecap="round" /><path d="M 0.5 0.5 L 0.5 -134.5 L 92.5 -134.5 L 92.5 0.5 L 0.5 0.5 Z" style="stroke:#AE85C9;stroke-opacity:1; stroke-opacity: 0.2; stroke-width: 1; stroke-dasharray: none; stroke-linecap: butt; stroke-linejoin: miter; stroke-miterlimit: 10;fill:#AE85C9;fill-opacity:1; fill-opacity: 0.8; fill-rule: nonzero; opacity: 1" transform=" matrix(1 0 0 1 289 469) " stroke-linecap="round" /><path d="M 0.5 0.5 L 0.5 -156.5 L 92.5 -156.5 L 92.5 0.5 L 0.5 0.5 Z" style="stroke:#AE85C9;stroke-opacity:1; stroke-opacity: 0.2; stroke-width: 1; stroke-dasharray: none; stroke-linecap: butt; stroke-linejoin: miter; stroke-miterlimit: 10;fill:#AE85C9;fill-opacity:1; fill-opacity: 0.8; fill-rule: nonzero; opacity: 1" transform=" matrix(1 0 0 1 404 469) " stroke-linecap="round" /><path d="M 0.5 0.5 L 0.5 -44.5 L 92.5 -44.5 L 92.5 0.5 L 0.5 0.5 Z" style="stroke:#AE85C9;stroke-opacity:1; stroke-opacity: 0.2; stroke-width: 1; stroke-dasharray: none; stroke-linecap: butt; stroke-linejoin: miter; stroke-miterlimit: 10;fill:#AE85C9;fill-opacity:1; fill-opacity: 0.8; fill-rule: nonzero; opacity: 1" transform=" matrix(1 0 0 1 519 469) " stroke-linecap="round" /><path d="M 0.5 0.5 L 0.5 -390.5 L 92.5 -390.5 L 92.5 0.5 L 0.5 0.5 Z" style="stroke:#AE85C9;stroke-opacity:1; stroke-opacity: 0.2; stroke-width: 1; stroke-dasharray: none; stroke-linecap: butt; stroke-linejoin: miter; stroke-miterlimit: 10;fill:#AE85C9;fill-opacity:1; fill-opacity: 0.8; fill-rule: nonzero; opacity: 1" transform=" matrix(1 0 0 1 634 469) " stroke-linecap="round" /><path d="M 0.5 0.5 L 0.5 -358.5 L 92.5 -358.5 L 92.5 0.5 L 0.5 0.5 Z" style="stroke:#AE85C9;stroke-opacity:1; stroke-opacity: 0.2; stroke-width: 1; stroke-dasharray: none; stroke-linecap: butt; stroke-linejoin: miter; stroke-miterlimit: 10;fill:#AE85C9;fill-opacity:1; fill-opacity: 0.8; fill-rule: nonzero; opacity: 1" transform=" matrix(1 0 0 1 749 469) " stroke-linecap="round" /><path d="M 0.5 0.5 L 0.5 -134.5 L 92.5 -134.5 L 92.5 0.5 L 0.5 0.5 Z" style="stroke:#AE85C9;stroke-opacity:1; stroke-opacity: 0.2; stroke-width: 1; stroke-dasharray: none; stroke-linecap: butt; stroke-linejoin: miter; stroke-miterlimit: 10;fill:#AE85C9;fill-opacity:1; fill-opacity: 0.8; fill-rule: nonzero; opacity: 1" transform=" matrix(1 0 0 1 864 469) " stroke-linecap="round" /><path d="M 0.5 0.5 L 0.5 -313.5 L 92.5 -313.5 L 92.5 0.5 L 0.5 0.5 Z" style="stroke:#AE85C9;stroke-opacity:1; stroke-opacity: 0.2; stroke-width: 1; stroke-dasharray: none; stroke-linecap: butt; stroke-linejoin: miter; stroke-miterlimit: 10;fill:#AE85C9;fill-opacity:1; fill-opacity: 0.8; fill-rule: nonzero; opacity: 1" transform=" matrix(1 0 0 1 979 469) " stroke-linecap="round" /><path d="M 0.5 0.5 L 0.5 -223.5 L 92.5 -223.5 L 92.5 0.5 L 0.5 0.5 Z" style="stroke:#AE85C9;stroke-opacity:1; stroke-opacity: 0.2; stroke-width: 1; stroke-dasharray: none; stroke-linecap: butt; stroke-linejoin: miter; stroke-miterlimit: 10;fill:#AE85C9;fill-opacity:1; fill-opacity: 0.8; fill-rule: nonzero; opacity: 1" transform=" matrix(1 0 0 1 1094 469) " stroke-linecap="round" /><path d="M 0.5 0.5 L 0.5 -345.5 L 92.5 -345.5 L 92.5 0.5 L 0.5 0.5 Z" style="stroke:#AE85C9;stroke-opacity:1; stroke-opacity: 0.2; stroke-width: 1; stroke-dasharray: none; stroke-linecap: butt; stroke-linejoin: miter; stroke-miterlimit: 10;fill:#AE85C9;fill-opacity:1; fill-opacity: 0.8; fill-rule: nonzero; opacity: 1" transform=" matrix(1 0 0 1 1209 469) " stroke-linecap="round" /><path d="M 0.5 0.5 L 1264.5 0.5" style="stroke:#FFFFFF;stroke-opacity:1; stroke-opacity: 0.3; stroke-width: 1; stroke-dasharray: none; stroke-linecap: butt; stroke-linejoin: miter; stroke-miterlimit: 10; fill: none; fill-rule: nonzero; opacity: 1" transform=" matrix(1 0 0 1 48 469) " stroke-linecap="round" /><path d="M 0.5 0.5 L 0.5 449.5" style="stroke:#FFFFFF;stroke-opacity:1; stroke-opacity: 0.3; stroke-width: 1; stroke-dasharray: none; stroke-linecap: butt; stroke-linejoin: miter; stroke-miterlimit: 10; fill: none; fill-rule: nonzero; opacity: 1" transform=" matrix(1 0 0 1 48 20) " stroke-linecap="round" /><g  clip-path="url(#AmChartsEl-4)" ><path d="M 0.5 0.5 L 0.5 0.5 L 0.5 449.5" style="stroke:#FFFFFF;stroke-opacity:1; stroke-opacity: 0; stroke-width: 1; stroke-dasharray: none; stroke-linecap: butt; stroke-linejoin: miter; stroke-miterlimit: 10; fill: none; fill-rule: nonzero; opacity: 0" transform=" matrix(1 0 0 1 1256 20) " stroke-linecap="round" /></g><g  clip-path="url(#AmChartsEl-4)" ><path d="M 0.5 0.5 L 1264.5 0.5 L 1264.5 0.5" style="stroke:#FFFFFF;stroke-opacity:1; stroke-opacity: 0; stroke-width: 1; stroke-dasharray: none; stroke-linecap: butt; stroke-linejoin: miter; stroke-miterlimit: 10; fill: none; fill-rule: nonzero; opacity: 0" transform=" matrix(1 0 0 1 48 25) " stroke-linecap="round" /></g><rect x="0" y="0" rx="0" ry="0" width="1264" height="449" style="stroke: none; stroke-width: 0; stroke-dasharray: none; stroke-linecap: butt; stroke-linejoin: miter; stroke-miterlimit: 10; fill: none; fill-rule: nonzero; opacity: 1" transform=""/><g transform=" matrix(1 0 0 1 105.45454545454545 481.5) "><text font-family="Verdana" font-size="11" font-weight="normal" style="stroke: none; stroke-width: 1; stroke-dasharray: none; stroke-linecap: butt; stroke-linejoin: miter; stroke-miterlimit: 10;fill:#E7E7E7;fill-opacity:1; fill-rule: nonzero; opacity: 1" ><tspan x="-15" y="5.49" fill="rgba(231,231,231,1)">HTML</tspan></text></g><g transform=" matrix(1 0 0 1 220.45454545454544 481.5) "><text font-family="Verdana" font-size="11" font-weight="normal" style="stroke: none; stroke-width: 1; stroke-dasharray: none; stroke-linecap: butt; stroke-linejoin: miter; stroke-miterlimit: 10;fill:#E7E7E7;fill-opacity:1; fill-rule: nonzero; opacity: 1" ><tspan x="-11.94" y="5.49" fill="rgba(231,231,231,1)">CSS</tspan></text></g><g transform=" matrix(1 0 0 1 335.45454545454544 481.5) "><text font-family="Verdana" font-size="11" font-weight="normal" style="stroke: none; stroke-width: 1; stroke-dasharray: none; stroke-linecap: butt; stroke-linejoin: miter; stroke-miterlimit: 10;fill:#E7E7E7;fill-opacity:1; fill-rule: nonzero; opacity: 1" ><tspan x="-29.35" y="5.49" fill="rgba(231,231,231,1)">JavaScript</tspan></text></g><g transform=" matrix(1 0 0 1 450.45454545454544 481.5) "><text font-family="Verdana" font-size="11" font-weight="normal" style="stroke: none; stroke-width: 1; stroke-dasharray: none; stroke-linecap: butt; stroke-linejoin: miter; stroke-miterlimit: 10;fill:#E7E7E7;fill-opacity:1; fill-rule: nonzero; opacity: 1" ><tspan x="-11" y="5.49" fill="rgba(231,231,231,1)">PHP</tspan></text></g><g transform=" matrix(1 0 0 1 565.4545454545455 481.5) "><text font-family="Verdana" font-size="11" font-weight="normal" style="stroke: none; stroke-width: 1; stroke-dasharray: none; stroke-linecap: butt; stroke-linejoin: miter; stroke-miterlimit: 10;fill:#E7E7E7;fill-opacity:1; fill-rule: nonzero; opacity: 1" ><tspan x="-12.85" y="5.49" fill="rgba(231,231,231,1)">Java</tspan></text></g><g transform=" matrix(1 0 0 1 680.4545454545455 481.5) "><text font-family="Verdana" font-size="11" font-weight="normal" style="stroke: none; stroke-width: 1; stroke-dasharray: none; stroke-linecap: butt; stroke-linejoin: miter; stroke-miterlimit: 10;fill:#E7E7E7;fill-opacity:1; fill-rule: nonzero; opacity: 1" ><tspan x="-27.4" y="5.49" fill="rgba(231,231,231,1)">Bootstrap</tspan></text></g><g transform=" matrix(1 0 0 1 795.4545454545455 481.5) "><text font-family="Verdana" font-size="11" font-weight="normal" style="stroke: none; stroke-width: 1; stroke-dasharray: none; stroke-linecap: butt; stroke-linejoin: miter; stroke-miterlimit: 10;fill:#E7E7E7;fill-opacity:1; fill-rule: nonzero; opacity: 1" ><tspan x="-30.87" y="5.49" fill="rgba(231,231,231,1)">Foundation</tspan></text></g><g transform=" matrix(1 0 0 1 910.4545454545455 481.5) "><text font-family="Verdana" font-size="11" font-weight="normal" style="stroke: none; stroke-width: 1; stroke-dasharray: none; stroke-linecap: butt; stroke-linejoin: miter; stroke-miterlimit: 10;fill:#E7E7E7;fill-opacity:1; fill-rule: nonzero; opacity: 1" ><tspan x="-19.5" y="5.49" fill="rgba(231,231,231,1)">jQuery</tspan></text></g><g transform=" matrix(1 0 0 1 1025.4545454545455 481.5) "><text font-family="Verdana" font-size="11" font-weight="normal" style="stroke: none; stroke-width: 1; stroke-dasharray: none; stroke-linecap: butt; stroke-linejoin: miter; stroke-miterlimit: 10;fill:#E7E7E7;fill-opacity:1; fill-rule: nonzero; opacity: 1" ><tspan x="-19.5" y="5.49" fill="rgba(231,231,231,1)">MySQL</tspan></text></g><g transform=" matrix(1 0 0 1 1140.4545454545455 481.5) "><text font-family="Verdana" font-size="11" font-weight="normal" style="stroke: none; stroke-width: 1; stroke-dasharray: none; stroke-linecap: butt; stroke-linejoin: miter; stroke-miterlimit: 10;fill:#E7E7E7;fill-opacity:1; fill-rule: nonzero; opacity: 1" ><tspan x="-32.95" y="5.49" fill="rgba(231,231,231,1)">SQL Server</tspan></text></g><g transform=" matrix(1 0 0 1 1255.4545454545455 481.5) "><text font-family="Verdana" font-size="11" font-weight="normal" style="stroke: none; stroke-width: 1; stroke-dasharray: none; stroke-linecap: butt; stroke-linejoin: miter; stroke-miterlimit: 10;fill:#E7E7E7;fill-opacity:1; fill-rule: nonzero; opacity: 1" ><tspan x="-13.5" y="5.49" fill="rgba(231,231,231,1)">RWD</tspan></text></g><g transform=" matrix(1 0 0 1 36 468) "><text font-family="Verdana" font-size="11" font-weight="normal" style="stroke: none; stroke-width: 1; stroke-dasharray: none; stroke-linecap: butt; stroke-linejoin: miter; stroke-miterlimit: 10;fill:#E7E7E7;fill-opacity:1; fill-rule: nonzero; opacity: 1" ><tspan x="-14.5" y="5.49" fill="rgba(231,231,231,1)">10</tspan></text></g><g transform=" matrix(1 0 0 1 36 423) "><text font-family="Verdana" font-size="11" font-weight="normal" style="stroke: none; stroke-width: 1; stroke-dasharray: none; stroke-linecap: butt; stroke-linejoin: miter; stroke-miterlimit: 10;fill:#E7E7E7;fill-opacity:1; fill-rule: nonzero; opacity: 1" ><tspan x="-14.5" y="5.49" fill="rgba(231,231,231,1)">20</tspan></text></g><g transform=" matrix(1 0 0 1 36 378) "><text font-family="Verdana" font-size="11" font-weight="normal" style="stroke: none; stroke-width: 1; stroke-dasharray: none; stroke-linecap: butt; stroke-linejoin: miter; stroke-miterlimit: 10;fill:#E7E7E7;fill-opacity:1; fill-rule: nonzero; opacity: 1" ><tspan x="-14.5" y="5.49" fill="rgba(231,231,231,1)">30</tspan></text></g><g transform=" matrix(1 0 0 1 36 333) "><text font-family="Verdana" font-size="11" font-weight="normal" style="stroke: none; stroke-width: 1; stroke-dasharray: none; stroke-linecap: butt; stroke-linejoin: miter; stroke-miterlimit: 10;fill:#E7E7E7;fill-opacity:1; fill-rule: nonzero; opacity: 1" ><tspan x="-14.5" y="5.49" fill="rgba(231,231,231,1)">40</tspan></text></g><g transform=" matrix(1 0 0 1 36 288) "><text font-family="Verdana" font-size="11" font-weight="normal" style="stroke: none; stroke-width: 1; stroke-dasharray: none; stroke-linecap: butt; stroke-linejoin: miter; stroke-miterlimit: 10;fill:#E7E7E7;fill-opacity:1; fill-rule: nonzero; opacity: 1" ><tspan x="-14.5" y="5.49" fill="rgba(231,231,231,1)">50</tspan></text></g><g transform=" matrix(1 0 0 1 36 244) "><text font-family="Verdana" font-size="11" font-weight="normal" style="stroke: none; stroke-width: 1; stroke-dasharray: none; stroke-linecap: butt; stroke-linejoin: miter; stroke-miterlimit: 10;fill:#E7E7E7;fill-opacity:1; fill-rule: nonzero; opacity: 1" ><tspan x="-14.5" y="5.49" fill="rgba(231,231,231,1)">60</tspan></text></g><g transform=" matrix(1 0 0 1 36 199) "><text font-family="Verdana" font-size="11" font-weight="normal" style="stroke: none; stroke-width: 1; stroke-dasharray: none; stroke-linecap: butt; stroke-linejoin: miter; stroke-miterlimit: 10;fill:#E7E7E7;fill-opacity:1; fill-rule: nonzero; opacity: 1" ><tspan x="-14.5" y="5.49" fill="rgba(231,231,231,1)">70</tspan></text></g><g transform=" matrix(1 0 0 1 36 154) "><text font-family="Verdana" font-size="11" font-weight="normal" style="stroke: none; stroke-width: 1; stroke-dasharray: none; stroke-linecap: butt; stroke-linejoin: miter; stroke-miterlimit: 10;fill:#E7E7E7;fill-opacity:1; fill-rule: nonzero; opacity: 1" ><tspan x="-14.5" y="5.49" fill="rgba(231,231,231,1)">80</tspan></text></g><g transform=" matrix(1 0 0 1 36 109) "><text font-family="Verdana" font-size="11" font-weight="normal" style="stroke: none; stroke-width: 1; stroke-dasharray: none; stroke-linecap: butt; stroke-linejoin: miter; stroke-miterlimit: 10;fill:#E7E7E7;fill-opacity:1; fill-rule: nonzero; opacity: 1" ><tspan x="-14.5" y="5.49" fill="rgba(231,231,231,1)">90</tspan></text></g><g transform=" matrix(1 0 0 1 36 64) "><text font-family="Verdana" font-size="11" font-weight="normal" style="stroke: none; stroke-width: 1; stroke-dasharray: none; stroke-linecap: butt; stroke-linejoin: miter; stroke-miterlimit: 10;fill:#E7E7E7;fill-opacity:1; fill-rule: nonzero; opacity: 1" ><tspan x="-21.5" y="5.49" fill="rgba(231,231,231,1)">100</tspan></text></g><g transform=" matrix(1 0 0 1 36 19) "><text font-family="Verdana" font-size="11" font-weight="normal" style="stroke: none; stroke-width: 1; stroke-dasharray: none; stroke-linecap: butt; stroke-linejoin: miter; stroke-miterlimit: 10;fill:#E7E7E7;fill-opacity:1; fill-rule: nonzero; opacity: 1" ><tspan x="-21.5" y="5.49" fill="rgba(231,231,231,1)">110</tspan></text></g><path d="M 0.5 0.5 L 0.5 20.5" style="stroke:#FFFFFF;stroke-opacity:1; stroke-opacity: 0.3; stroke-width: 1; stroke-dasharray: none; stroke-linecap: butt; stroke-linejoin: miter; stroke-miterlimit: 10; fill: none; fill-rule: nonzero; opacity: 1" transform=" matrix(1 0 0 1 48 469) " stroke-linecap="round" /><path d="M 115.5 0.5 L 115.5 20.5" style="stroke:#FFFFFF;stroke-opacity:1; stroke-opacity: 0.3; stroke-width: 1; stroke-dasharray: none; stroke-linecap: butt; stroke-linejoin: miter; stroke-miterlimit: 10; fill: none; fill-rule: nonzero; opacity: 1" transform=" matrix(1 0 0 1 48 469) " stroke-linecap="round" /><path d="M 230.5 0.5 L 230.5 20.5" style="stroke:#FFFFFF;stroke-opacity:1; stroke-opacity: 0.3; stroke-width: 1; stroke-dasharray: none; stroke-linecap: butt; stroke-linejoin: miter; stroke-miterlimit: 10; fill: none; fill-rule: nonzero; opacity: 1" transform=" matrix(1 0 0 1 48 469) " stroke-linecap="round" /><path d="M 345.5 0.5 L 345.5 20.5" style="stroke:#FFFFFF;stroke-opacity:1; stroke-opacity: 0.3; stroke-width: 1; stroke-dasharray: none; stroke-linecap: butt; stroke-linejoin: miter; stroke-miterlimit: 10; fill: none; fill-rule: nonzero; opacity: 1" transform=" matrix(1 0 0 1 48 469) " stroke-linecap="round" /><path d="M 460.5 0.5 L 460.5 20.5" style="stroke:#FFFFFF;stroke-opacity:1; stroke-opacity: 0.3; stroke-width: 1; stroke-dasharray: none; stroke-linecap: butt; stroke-linejoin: miter; stroke-miterlimit: 10; fill: none; fill-rule: nonzero; opacity: 1" transform=" matrix(1 0 0 1 48 469) " stroke-linecap="round" /><path d="M 575.5 0.5 L 575.5 20.5" style="stroke:#FFFFFF;stroke-opacity:1; stroke-opacity: 0.3; stroke-width: 1; stroke-dasharray: none; stroke-linecap: butt; stroke-linejoin: miter; stroke-miterlimit: 10; fill: none; fill-rule: nonzero; opacity: 1" transform=" matrix(1 0 0 1 48 469) " stroke-linecap="round" /><path d="M 690.5 0.5 L 690.5 20.5" style="stroke:#FFFFFF;stroke-opacity:1; stroke-opacity: 0.3; stroke-width: 1; stroke-dasharray: none; stroke-linecap: butt; stroke-linejoin: miter; stroke-miterlimit: 10; fill: none; fill-rule: nonzero; opacity: 1" transform=" matrix(1 0 0 1 48 469) " stroke-linecap="round" /><path d="M 805.5 0.5 L 805.5 20.5" style="stroke:#FFFFFF;stroke-opacity:1; stroke-opacity: 0.3; stroke-width: 1; stroke-dasharray: none; stroke-linecap: butt; stroke-linejoin: miter; stroke-miterlimit: 10; fill: none; fill-rule: nonzero; opacity: 1" transform=" matrix(1 0 0 1 48 469) " stroke-linecap="round" /><path d="M 920.5 0.5 L 920.5 20.5" style="stroke:#FFFFFF;stroke-opacity:1; stroke-opacity: 0.3; stroke-width: 1; stroke-dasharray: none; stroke-linecap: butt; stroke-linejoin: miter; stroke-miterlimit: 10; fill: none; fill-rule: nonzero; opacity: 1" transform=" matrix(1 0 0 1 48 469) " stroke-linecap="round" /><path d="M 1035.5 0.5 L 1035.5 20.5" style="stroke:#FFFFFF;stroke-opacity:1; stroke-opacity: 0.3; stroke-width: 1; stroke-dasharray: none; stroke-linecap: butt; stroke-linejoin: miter; stroke-miterlimit: 10; fill: none; fill-rule: nonzero; opacity: 1" transform=" matrix(1 0 0 1 48 469) " stroke-linecap="round" /><path d="M 1150.5 0.5 L 1150.5 20.5" style="stroke:#FFFFFF;stroke-opacity:1; stroke-opacity: 0.3; stroke-width: 1; stroke-dasharray: none; stroke-linecap: butt; stroke-linejoin: miter; stroke-miterlimit: 10; fill: none; fill-rule: nonzero; opacity: 1" transform=" matrix(1 0 0 1 48 469) " stroke-linecap="round" /><path d="M 1264.5 0.5 L 1264.5 20.5" style="stroke:#FFFFFF;stroke-opacity:1; stroke-opacity: 0.3; stroke-width: 1; stroke-dasharray: none; stroke-linecap: butt; stroke-linejoin: miter; stroke-miterlimit: 10; fill: none; fill-rule: nonzero; opacity: 1" transform=" matrix(1 0 0 1 48 469) " stroke-linecap="round" /><path d="M 0.5 449.5 L 6.5 449.5" style="stroke:#FFFFFF;stroke-opacity:1; stroke-opacity: 0.3; stroke-width: 1; stroke-dasharray: none; stroke-linecap: butt; stroke-linejoin: miter; stroke-miterlimit: 10; fill: none; fill-rule: nonzero; opacity: 1" transform=" matrix(1 0 0 1 42 20) " stroke-linecap="round" /><path d="M 0.5 449.5 L 0.5 449.5 L 1264.5 449.5" style="stroke:#B6B6B6;stroke-opacity:1; stroke-opacity: 0.2; stroke-width: 1; stroke-dasharray: none; stroke-linecap: butt; stroke-linejoin: miter; stroke-miterlimit: 10; fill: none; fill-rule: nonzero; opacity: 1" transform=" matrix(1 0 0 1 48 20) " stroke-linecap="round" /><path d="M 0.5 404.5 L 6.5 404.5" style="stroke:#FFFFFF;stroke-opacity:1; stroke-opacity: 0.3; stroke-width: 1; stroke-dasharray: none; stroke-linecap: butt; stroke-linejoin: miter; stroke-miterlimit: 10; fill: none; fill-rule: nonzero; opacity: 1" transform=" matrix(1 0 0 1 42 20) " stroke-linecap="round" /><path d="M 0.5 404.5 L 0.5 404.5 L 1264.5 404.5" style="stroke:#B6B6B6;stroke-opacity:1; stroke-opacity: 0.2; stroke-width: 1; stroke-dasharray: none; stroke-linecap: butt; stroke-linejoin: miter; stroke-miterlimit: 10; fill: none; fill-rule: nonzero; opacity: 1" transform=" matrix(1 0 0 1 48 20) " stroke-linecap="round" /><path d="M 0.5 359.5 L 6.5 359.5" style="stroke:#FFFFFF;stroke-opacity:1; stroke-opacity: 0.3; stroke-width: 1; stroke-dasharray: none; stroke-linecap: butt; stroke-linejoin: miter; stroke-miterlimit: 10; fill: none; fill-rule: nonzero; opacity: 1" transform=" matrix(1 0 0 1 42 20) " stroke-linecap="round" /><path d="M 0.5 359.5 L 0.5 359.5 L 1264.5 359.5" style="stroke:#B6B6B6;stroke-opacity:1; stroke-opacity: 0.2; stroke-width: 1; stroke-dasharray: none; stroke-linecap: butt; stroke-linejoin: miter; stroke-miterlimit: 10; fill: none; fill-rule: nonzero; opacity: 1" transform=" matrix(1 0 0 1 48 20) " stroke-linecap="round" /><path d="M 0.5 314.5 L 6.5 314.5" style="stroke:#FFFFFF;stroke-opacity:1; stroke-opacity: 0.3; stroke-width: 1; stroke-dasharray: none; stroke-linecap: butt; stroke-linejoin: miter; stroke-miterlimit: 10; fill: none; fill-rule: nonzero; opacity: 1" transform=" matrix(1 0 0 1 42 20) " stroke-linecap="round" /><path d="M 0.5 314.5 L 0.5 314.5 L 1264.5 314.5" style="stroke:#B6B6B6;stroke-opacity:1; stroke-opacity: 0.2; stroke-width: 1; stroke-dasharray: none; stroke-linecap: butt; stroke-linejoin: miter; stroke-miterlimit: 10; fill: none; fill-rule: nonzero; opacity: 1" transform=" matrix(1 0 0 1 48 20) " stroke-linecap="round" /><path d="M 0.5 269.5 L 6.5 269.5" style="stroke:#FFFFFF;stroke-opacity:1; stroke-opacity: 0.3; stroke-width: 1; stroke-dasharray: none; stroke-linecap: butt; stroke-linejoin: miter; stroke-miterlimit: 10; fill: none; fill-rule: nonzero; opacity: 1" transform=" matrix(1 0 0 1 42 20) " stroke-linecap="round" /><path d="M 0.5 269.5 L 0.5 269.5 L 1264.5 269.5" style="stroke:#B6B6B6;stroke-opacity:1; stroke-opacity: 0.2; stroke-width: 1; stroke-dasharray: none; stroke-linecap: butt; stroke-linejoin: miter; stroke-miterlimit: 10; fill: none; fill-rule: nonzero; opacity: 1" transform=" matrix(1 0 0 1 48 20) " stroke-linecap="round" /><path d="M 0.5 225.5 L 6.5 225.5" style="stroke:#FFFFFF;stroke-opacity:1; stroke-opacity: 0.3; stroke-width: 1; stroke-dasharray: none; stroke-linecap: butt; stroke-linejoin: miter; stroke-miterlimit: 10; fill: none; fill-rule: nonzero; opacity: 1" transform=" matrix(1 0 0 1 42 20) " stroke-linecap="round" /><path d="M 0.5 225.5 L 0.5 225.5 L 1264.5 225.5" style="stroke:#B6B6B6;stroke-opacity:1; stroke-opacity: 0.2; stroke-width: 1; stroke-dasharray: none; stroke-linecap: butt; stroke-linejoin: miter; stroke-miterlimit: 10; fill: none; fill-rule: nonzero; opacity: 1" transform=" matrix(1 0 0 1 48 20) " stroke-linecap="round" /><path d="M 0.5 180.5 L 6.5 180.5" style="stroke:#FFFFFF;stroke-opacity:1; stroke-opacity: 0.3; stroke-width: 1; stroke-dasharray: none; stroke-linecap: butt; stroke-linejoin: miter; stroke-miterlimit: 10; fill: none; fill-rule: nonzero; opacity: 1" transform=" matrix(1 0 0 1 42 20) " stroke-linecap="round" /><path d="M 0.5 180.5 L 0.5 180.5 L 1264.5 180.5" style="stroke:#B6B6B6;stroke-opacity:1; stroke-opacity: 0.2; stroke-width: 1; stroke-dasharray: none; stroke-linecap: butt; stroke-linejoin: miter; stroke-miterlimit: 10; fill: none; fill-rule: nonzero; opacity: 1" transform=" matrix(1 0 0 1 48 20) " stroke-linecap="round" /><path d="M 0.5 135.5 L 6.5 135.5" style="stroke:#FFFFFF;stroke-opacity:1; stroke-opacity: 0.3; stroke-width: 1; stroke-dasharray: none; stroke-linecap: butt; stroke-linejoin: miter; stroke-miterlimit: 10; fill: none; fill-rule: nonzero; opacity: 1" transform=" matrix(1 0 0 1 42 20) " stroke-linecap="round" /><path d="M 0.5 135.5 L 0.5 135.5 L 1264.5 135.5" style="stroke:#B6B6B6;stroke-opacity:1; stroke-opacity: 0.2; stroke-width: 1; stroke-dasharray: none; stroke-linecap: butt; stroke-linejoin: miter; stroke-miterlimit: 10; fill: none; fill-rule: nonzero; opacity: 1" transform=" matrix(1 0 0 1 48 20) " stroke-linecap="round" /><path d="M 0.5 90.5 L 6.5 90.5" style="stroke:#FFFFFF;stroke-opacity:1; stroke-opacity: 0.3; stroke-width: 1; stroke-dasharray: none; stroke-linecap: butt; stroke-linejoin: miter; stroke-miterlimit: 10; fill: none; fill-rule: nonzero; opacity: 1" transform=" matrix(1 0 0 1 42 20) " stroke-linecap="round" /><path d="M 0.5 90.5 L 0.5 90.5 L 1264.5 90.5" style="stroke:#B6B6B6;stroke-opacity:1; stroke-opacity: 0.2; stroke-width: 1; stroke-dasharray: none; stroke-linecap: butt; stroke-linejoin: miter; stroke-miterlimit: 10; fill: none; fill-rule: nonzero; opacity: 1" transform=" matrix(1 0 0 1 48 20) " stroke-linecap="round" /><path d="M 0.5 45.5 L 6.5 45.5" style="stroke:#FFFFFF;stroke-opacity:1; stroke-opacity: 0.3; stroke-width: 1; stroke-dasharray: none; stroke-linecap: butt; stroke-linejoin: miter; stroke-miterlimit: 10; fill: none; fill-rule: nonzero; opacity: 1" transform=" matrix(1 0 0 1 42 20) " stroke-linecap="round" /><path d="M 0.5 45.5 L 0.5 45.5 L 1264.5 45.5" style="stroke:#B6B6B6;stroke-opacity:1; stroke-opacity: 0.2; stroke-width: 1; stroke-dasharray: none; stroke-linecap: butt; stroke-linejoin: miter; stroke-miterlimit: 10; fill: none; fill-rule: nonzero; opacity: 1" transform=" matrix(1 0 0 1 48 20) " stroke-linecap="round" /><path d="M 0.5 0.5 L 6.5 0.5" style="stroke:#FFFFFF;stroke-opacity:1; stroke-opacity: 0.3; stroke-width: 1; stroke-dasharray: none; stroke-linecap: butt; stroke-linejoin: miter; stroke-miterlimit: 10; fill: none; fill-rule: nonzero; opacity: 1" transform=" matrix(1 0 0 1 42 20) " stroke-linecap="round" /><path d="M 0.5 0.5 L 0.5 0.5 L 1264.5 0.5" style="stroke:#B6B6B6;stroke-opacity:1; stroke-opacity: 0.2; stroke-width: 1; stroke-dasharray: none; stroke-linecap: butt; stroke-linejoin: miter; stroke-miterlimit: 10; fill: none; fill-rule: nonzero; opacity: 1" transform=" matrix(1 0 0 1 48 20) " stroke-linecap="round" /><rect x="-1" y="-1" rx="0" ry="0" width="1266" height="451" style="stroke: none; stroke-width: 0; stroke-dasharray: none; stroke-linecap: butt; stroke-linejoin: miter; stroke-miterlimit: 10; fill: none; fill-rule: nonzero; opacity: 1" transform=""/></g><g transform="translate(114.99 32.71)"><text font-family="Verdana" font-size="11" font-weight="normal" style="stroke: none; stroke-width: 1; stroke-dasharray: none; stroke-linecap: butt; stroke-linejoin: miter; stroke-miterlimit: 10;fill:#E7E7E7;fill-opacity:1; fill-rule: nonzero; opacity: 0.7" ><tspan x="-61.49" y="2.47" fill="rgb(231, 231, 231)">JS chart by amCharts</tspan></text></g><clipPath xmlns="http://www.w3.org/2000/svg" id="AmChartsEl-4"><rect x="0" y="0" width="1264" height="449" rx="0" ry="0" stroke-width="0" fill="none" fill-opacity="0" svgUid="0"/></clipPath></svg>